<?xml version="1.0" encoding="UTF-8"?>
<svg width="24px" height="24px" viewBox="0 0 24 24" version="1.1" xmlns="http://www.w3.org/2000/svg" xmlns:xlink="http://www.w3.org/1999/xlink">
    <!-- Generator: Sketch 64 (93537) - https://sketch.com -->
    <title>@1xIconly/Light-outline/Search</title>
    <desc>Created with Sketch.</desc>
    <g id="Iconly/Light-outline/Search" stroke="none" stroke-width="1" fill="none" fill-rule="evenodd">
        <g id="Search" transform="translate(2.000000, 2.000000)" fill="#200E32" fill-rule="nonzero">
            <path d="M9.61154085,8.52651283e-14 C14.9198483,8.52651283e-14 19.2230817,4.20819209 19.2230817,9.39926012 C19.2230817,11.849049 18.2646994,14.0799396 16.6945817,15.7529407 L19.7825141,18.7636123 C20.0719628,19.0459331 20.0725723,19.5042615 19.7838754,19.7873175 C19.5214236,20.0446411 19.1102258,20.0685267 18.8201644,19.8586312 L18.73705,19.7886487 L15.6127041,16.7417321 C13.9681424,18.0288264 11.8817575,18.7985202 9.61154085,18.7985202 C4.30323342,18.7985202 0,14.5903281 0,9.39926012 C0,4.20819209 4.30323342,8.52651283e-14 9.61154085,8.52651283e-14 Z M9.61154085,1.44773894 C5.12085558,1.44773894 1.48043588,5.00775623 1.48043588,9.39926012 C1.48043588,13.790764 5.12085558,17.3507813 9.61154085,17.3507813 C14.1022261,17.3507813 17.7426458,13.790764 17.7426458,9.39926012 C17.7426458,5.00775623 14.1022261,1.44773894 9.61154085,1.44773894 Z"></path>
        </g>
    </g>
</svg>